<svg width="20.000000" height="19.000000" viewBox="0 0 20 19" fill="none" xmlns="http://www.w3.org/2000/svg" xmlns:xlink="http://www.w3.org/1999/xlink">
	<desc>
			Created with Pixso.
	</desc>
	<defs/>
	<path id="Github" d="M10 0C4.47 0 0 4.36 0 9.74C0 14.04 2.86 17.69 6.83 18.98C7.33 19.07 7.52 18.77 7.52 18.51C7.52 18.28 7.51 17.67 7.5 16.85C4.72 17.44 4.14 15.55 4.14 15.55C3.68 14.42 3.02 14.12 3.02 14.12C2.12 13.52 3.09 13.53 3.09 13.53C4.1 13.6 4.62 14.53 4.62 14.53C5.52 16.02 6.97 15.59 7.54 15.34C7.63 14.71 7.88 14.29 8.17 14.04C5.95 13.8 3.62 12.96 3.62 9.23C3.62 8.16 4 7.3 4.64 6.61C4.53 6.37 4.19 5.38 4.73 4.04C4.73 4.04 5.57 3.78 7.48 5.03C8.28 4.82 9.13 4.71 9.98 4.71C10.83 4.71 11.68 4.82 12.48 5.03C14.38 3.78 15.22 4.04 15.22 4.04C15.76 5.38 15.42 6.37 15.32 6.61C15.96 7.3 16.34 8.16 16.34 9.23C16.34 12.97 14.01 13.79 11.78 14.03C12.13 14.33 12.46 14.92 12.46 15.84C12.46 17.14 12.44 18.19 12.44 18.5C12.44 18.76 12.62 19.06 13.13 18.97C17.13 17.69 20 14.03 20 9.74C20 4.36 15.52 0 10 0Z" fill="#212121" fill-opacity="1.000000" fill-rule="nonzero"/>
</svg>
