<svg width="20.000000" height="25.000000" viewBox="0 0 20 25" fill="none" xmlns="http://www.w3.org/2000/svg" xmlns:xlink="http://www.w3.org/1999/xlink">
	<desc>
			Created with Pixso.
	</desc>
	<defs/>
	<path id="Vector" d="M16.71 16.33L15.24 15.9L12.05 13.81L12.05 13.33C12.98 12.64 13.61 11.57 13.73 10.35C14.19 10.28 14.55 9.87 14.55 9.39L14.55 8.07C14.55 8.07 14.55 8.06 14.55 8.06L14.55 6.4C14.73 6.26 14.85 6.05 14.85 5.81L14.85 4.28L17.05 3.91C17.41 3.85 17.67 3.56 17.7 3.19C17.73 2.83 17.51 2.51 17.16 2.39L9.73 0.03C9.58 -0.02 9.41 -0.02 9.26 0.03L1.83 2.39C1.48 2.51 1.26 2.83 1.29 3.19C1.3 3.43 1.42 3.63 1.59 3.76L1.59 5.75L1.57 5.75C1.15 5.75 0.81 6.09 0.81 6.51L0.81 7.5L0.32 10.37C0.24 10.87 0.62 11.32 1.12 11.32L2.78 11.32C3.29 11.32 3.67 10.87 3.59 10.37L3.1 7.5L3.1 6.51C3.1 6.09 2.76 5.75 2.34 5.75L2.32 5.75L2.32 3.97L4.14 4.28L4.14 5.81C4.14 6.05 4.26 6.26 4.44 6.39L4.44 8.08L4.44 9.39C4.44 9.87 4.8 10.28 5.26 10.35C5.38 11.57 6.01 12.64 6.94 13.33L6.94 13.81L3.74 15.9L2.28 16.33C0.71 16.79 -0.4 18.23 -0.4 19.9L-0.4 20.99C-0.4 21.2 -0.23 21.36 -0.03 21.36C0.17 21.36 0.33 21.2 0.33 20.99L0.33 19.9C0.33 18.58 1.22 17.4 2.48 17.03L3.85 16.63L9.31 19.87C9.42 19.94 9.57 19.94 9.68 19.87L15.14 16.63L16.51 17.03C17.77 17.4 18.66 18.58 18.66 19.9L18.66 23.44C18.66 23.89 18.29 24.26 17.83 24.26L16.22 24.26L16.22 22.68C16.22 22.48 16.06 22.32 15.85 22.32C15.65 22.32 15.49 22.48 15.49 22.68L15.49 24.26L3.5 24.26L3.5 22.68C3.5 22.48 3.34 22.32 3.14 22.32C2.93 22.32 2.77 22.48 2.77 22.68L2.77 24.26L1.16 24.26C0.7 24.26 0.33 23.89 0.33 23.44L0.33 22.71C0.33 22.5 0.17 22.34 -0.03 22.34C-0.23 22.34 -0.4 22.5 -0.4 22.71L-0.4 23.44C-0.4 24.3 0.3 25 1.16 25L17.83 25C18.69 25 19.39 24.3 19.39 23.44L19.39 19.9C19.39 18.27 18.32 16.8 16.71 16.33ZM2.78 10.59L1.12 10.59C1.07 10.59 1.03 10.54 1.04 10.49L1.49 7.89L2.42 7.89L2.86 10.49C2.87 10.54 2.83 10.59 2.78 10.59ZM2.36 6.51L2.36 7.16L1.54 7.16L1.54 6.51C1.54 6.49 1.55 6.48 1.57 6.48L2.34 6.48C2.35 6.48 2.36 6.49 2.36 6.51ZM8.19 18.22L8.33 18.44L4.59 16.22L6.97 14.67C7.07 15.93 7.49 17.15 8.19 18.22ZM8.18 16.64C9.04 16.76 9.94 16.76 10.81 16.64C10.64 17.05 10.44 17.44 10.19 17.82L9.5 18.89L8.8 17.82C8.55 17.44 8.35 17.05 8.18 16.64ZM10.8 18.22C11.5 17.15 11.92 15.93 12.02 14.67L14.4 16.22L10.66 18.44L10.8 18.22ZM12.95 6.53L13.81 6.53L13.81 7.71L13.38 7.71C13.14 7.71 12.95 7.51 12.95 7.27L12.95 6.53L12.95 6.53ZM2.05 3.09L9.48 0.73C9.49 0.73 9.5 0.73 9.51 0.73L16.94 3.09C16.95 3.1 16.97 3.1 16.97 3.14C16.97 3.18 16.95 3.18 16.93 3.19L14.47 3.6L13.55 3.49C13.35 3.47 13.17 3.61 13.14 3.81C13.12 4.01 13.26 4.19 13.46 4.22L14.12 4.3L14.12 5.8L4.87 5.8L4.87 4.3L8.66 3.83C9.21 3.76 9.77 3.76 10.33 3.83L11.76 4.01C11.96 4.03 12.14 3.89 12.17 3.69C12.19 3.49 12.05 3.3 11.85 3.28L10.42 3.1C9.8 3.03 9.18 3.03 8.57 3.1L4.52 3.6L2.06 3.19C2.04 3.18 2.02 3.18 2.02 3.14C2.02 3.1 2.04 3.1 2.05 3.09ZM5.17 7.71L5.17 6.53L6.04 6.53L6.04 7.27C6.04 7.51 5.85 7.71 5.61 7.71L5.17 7.71L5.17 7.71ZM5.98 10.16C5.96 9.86 5.71 9.63 5.42 9.63C5.28 9.63 5.17 9.52 5.17 9.39L5.17 8.44L5.61 8.44C6.25 8.44 6.78 7.92 6.78 7.27L6.78 6.53L12.21 6.53L12.21 7.27C12.21 7.92 12.74 8.44 13.38 8.44L13.82 8.44L13.82 9.39C13.82 9.52 13.71 9.63 13.57 9.63C13.28 9.63 13.03 9.86 13.01 10.16C12.89 12.01 11.35 13.46 9.49 13.46C7.64 13.46 6.1 12.01 5.98 10.16ZM9.5 14.19C10.15 14.19 10.77 14.04 11.32 13.78L11.32 14.01C11.32 14.64 11.24 15.25 11.07 15.85C10.08 16.04 8.95 16.05 7.92 15.85C7.75 15.25 7.67 14.64 7.67 14.01C7.67 14 7.67 14 7.67 13.99C7.67 13.99 7.67 13.98 7.67 13.98L7.67 13.78C8.22 14.04 8.84 14.19 9.5 14.19Z" fill="#000000" fill-opacity="1.000000" fill-rule="nonzero"/>
</svg>
